{
  "source": "C:\\Users\\Peter\\Desktop\\stuff\\MIUN\\quantitative_research\\video_compression\\videos\\BVI-HD\\BVI-HD_CDVL_videos\\ORIG\\Music_1920x1080_30fps.mp4",
  "output": "C:\\Users\\Peter\\Desktop\\stuff\\MIUN\\quantitative_research\\video_compression\\compressed_videos\\BVI-HD\\av1\\2.5\\Music_1920x1080_30fps_av1.mkv",
  "codec": "av1",
  "ok": "Input #0, mov,mp4,m4a,3gp,3g2,mj2, from 'C:\\Users\\Peter\\Desktop\\stuff\\MIUN\\quantitative_research\\video_compression\\videos\\BVI-HD\\BVI-HD_CDVL_videos\\ORIG\\Music_1920x1080_30fps.mp4':\n  Metadata:\n    major_brand     : isom\n    minor_version   : 512\n    compatible_brands: isomiso2avc1mp41\n    encoder         : Lavf54.28.101\n  Duration: 00:00:05.00, start: 0.000000, bitrate: 192710 kb/s\n  Stream #0:0[0x1](und): Video: h264 (High 4:4:4 Predictive) (avc1 / 0x31637661), yuv420p(progressive), 1920x1080, 192707 kb/s, 30 fps, 30 tbr, 30 tbn (default)\n    Metadata:\n      handler_name    : VideoHandler\n      vendor_id       : [0][0][0][0]\n[out#0/matroska @ 0000010a0d591200] Codec AVOption b:a (set bitrate (in bits/s)) has not been used for any stream. The most likely reason is either wrong type (e.g. a video option with no video streams) or that it is a private option of some decoder which was not actually used for any stream.\nStream mapping:\n  Stream #0:0 -> #0:0 (h264 (native) -> av1 (libsvtav1))\nPress [q] to stop, [?] for help\nSvt[info]: -------------------------------------------\nSvt[info]: SVT [version]:\tSVT-AV1 Encoder Lib v3.1.0-19-g6ecfe8ec\nSvt[info]: SVT [build]  :\tGCC 15.2.0\t 64 bit\nSvt[info]: LIB Build date: Aug 17 2025 11:37:13\nSvt[info]: -------------------------------------------\nSvt[info]: Level of Parallelism: 5\nSvt[info]: Number of PPCS 93\nSvt[info]: [asm level on system : up to avx2]\nSvt[info]: [asm level selected : up to avx2]\nSvt[info]: -------------------------------------------\nSvt[info]: SVT [config]: main profile\ttier (auto)\tlevel (auto)\nSvt[info]: SVT [config]: width / height / fps numerator / fps denominator \t\t: 1920 / 1080 / 30 / 1\nSvt[info]: SVT [config]: bit-depth / color format \t\t\t\t\t: 8 / YUV420\nSvt[info]: SVT [config]: preset / tune / pred struct \t\t\t\t\t: 4 / PSNR / random access\nSvt[info]: SVT [config]: gop size / mini-gop size / key-frame type \t\t\t: 161 / 16 / key frame\nSvt[info]: SVT [config]: BRC mode / target bitrate (kbps)\t\t\t\t: VBR / 2500 \nSvt[info]: SVT [config]: AQ mode / Variance Boost \t\t\t\t\t: 2 / 0\nSvt[info]: SVT [config]: sharpness / luminance-based QP bias \t\t\t\t: 0 / 0\nSvt[info]: SVT [config]: QP scale compress strength \t\t\t\t\t: 0\nSvt[info]: -------------------------------------------\nOutput #0, matroska, to 'C:\\Users\\Peter\\Desktop\\stuff\\MIUN\\quantitative_research\\video_compression\\compressed_videos\\BVI-HD\\av1\\2.5\\Music_1920x1080_30fps_av1.mkv':\n  Metadata:\n    major_brand     : isom\n    minor_version   : 512\n    compatible_brands: isomiso2avc1mp41\n    encoder         : Lavf62.3.100\n  Stream #0:0(und): Video: av1 (AV01 / 0x31305641), yuv420p(tv, progressive), 1920x1080, q=2-31, 2500 kb/s, 30 fps, 1k tbn (default)\n    Metadata:\n      encoder         : Lavc62.11.100 libsvtav1\n      handler_name    : VideoHandler\n      vendor_id       : [0][0][0][0]\n    Side data:\n      cpb: bitrate max/min/avg: 0/0/2500000 buffer size: 2500000 vbv_delay: N/A\nframe=    0 fps=0.0 q=0.0 size=       0KiB time=N/A bitrate=N/A speed=N/A elapsed=0:00:01.02    \nframe=    0 fps=0.0 q=0.0 size=       0KiB time=N/A bitrate=N/A speed=N/A elapsed=0:00:01.55    \nframe=    0 fps=0.0 q=0.0 size=       0KiB time=N/A bitrate=N/A speed=N/A elapsed=0:00:02.06    \nframe=    1 fps=0.4 q=23.0 size=       1KiB time=00:00:00.00 bitrate=N/A speed=   0x elapsed=0:00:02.60    \nframe=    7 fps=2.2 q=34.0 size=       1KiB time=00:00:00.20 bitrate=  28.5kbits/s speed=0.0641x elapsed=0:00:03.12    \nframe=    9 fps=2.5 q=31.0 size=       1KiB time=00:00:00.26 bitrate=  21.4kbits/s speed=0.0732x elapsed=0:00:03.64    \nframe=   12 fps=2.9 q=31.0 size=       1KiB time=00:00:00.36 bitrate=  15.6kbits/s speed=0.0881x elapsed=0:00:04.16    \nframe=   20 fps=4.2 q=30.0 size=       1KiB time=00:00:00.63 bitrate=   9.0kbits/s speed=0.135x elapsed=0:00:04.70    \nframe=   23 fps=4.4 q=30.0 size=       1KiB time=00:00:00.73 bitrate=   7.8kbits/s speed=0.14x elapsed=0:00:05.23    \nframe=   27 fps=4.7 q=29.0 size=       1KiB time=00:00:00.86 bitrate=   6.6kbits/s speed=0.15x elapsed=0:00:05.75    \nframe=   31 fps=4.9 q=31.0 size=       1KiB time=00:00:01.00 bitrate=   5.7kbits/s speed=0.159x elapsed=0:00:06.27    \nframe=   37 fps=5.4 q=31.0 size=       1KiB time=00:00:01.20 bitrate=   4.8kbits/s speed=0.177x elapsed=0:00:06.79    \nframe=   39 fps=5.3 q=30.0 size=       1KiB time=00:00:01.26 bitrate=   4.5kbits/s speed=0.173x elapsed=0:00:07.30    \nframe=   44 fps=5.6 q=35.0 size=       1KiB time=00:00:01.43 bitrate=   4.0kbits/s speed=0.183x elapsed=0:00:07.82    \nframe=   50 fps=6.0 q=32.0 size=       1KiB time=00:00:01.63 bitrate=   3.5kbits/s speed=0.196x elapsed=0:00:08.35    \nframe=   55 fps=6.2 q=30.0 size=       1KiB time=00:00:01.80 bitrate=   3.2kbits/s speed=0.203x elapsed=0:00:08.87    \nframe=   57 fps=6.1 q=24.0 size=       1KiB time=00:00:01.86 bitrate=   3.1kbits/s speed=0.198x elapsed=0:00:09.40    \nframe=   61 fps=6.2 q=29.0 size=       1KiB time=00:00:02.00 bitrate=   2.9kbits/s speed=0.202x elapsed=0:00:09.91    \nframe=   67 fps=6.4 q=32.0 size=       1KiB time=00:00:02.20 bitrate=   2.6kbits/s speed=0.211x elapsed=0:00:10.42    \nframe=   73 fps=6.7 q=25.0 size=       1KiB time=00:00:02.40 bitrate=   2.4kbits/s speed=0.219x elapsed=0:00:10.94    \nframe=   75 fps=6.5 q=32.0 size=       1KiB time=00:00:02.46 bitrate=   2.3kbits/s speed=0.215x elapsed=0:00:11.46    \nframe=   81 fps=6.8 q=13.0 size=       1KiB time=00:00:02.66 bitrate=   2.1kbits/s speed=0.223x elapsed=0:00:11.97    \nframe=   85 fps=6.8 q=31.0 size=       1KiB time=00:00:02.80 bitrate=   2.0kbits/s speed=0.224x elapsed=0:00:12.49    \nframe=   89 fps=6.8 q=27.0 size=       1KiB time=00:00:02.93 bitrate=   1.9kbits/s speed=0.225x elapsed=0:00:13.01    \nframe=   93 fps=6.9 q=30.0 size=       1KiB time=00:00:03.06 bitrate=   1.9kbits/s speed=0.227x elapsed=0:00:13.52    \nframe=   99 fps=7.0 q=34.0 size=       1KiB time=00:00:03.26 bitrate=   1.7kbits/s speed=0.233x elapsed=0:00:14.04    \nframe=  105 fps=7.2 q=28.0 size=       1KiB time=00:00:03.46 bitrate=   1.6kbits/s speed=0.238x elapsed=0:00:14.55    \nframe=  107 fps=7.1 q=34.0 size=       1KiB time=00:00:03.53 bitrate=   1.6kbits/s speed=0.234x elapsed=0:00:15.07    \nframe=  113 fps=7.2 q=20.0 size=       1KiB time=00:00:03.73 bitrate=   1.5kbits/s speed=0.239x elapsed=0:00:15.59    \nframe=  119 fps=7.4 q=36.0 size=       1KiB time=00:00:03.93 bitrate=   1.5kbits/s speed=0.244x elapsed=0:00:16.11    \nframe=  123 fps=7.4 q=38.0 size=       1KiB time=00:00:04.06 bitrate=   1.4kbits/s speed=0.245x elapsed=0:00:16.63    \nframe=  129 fps=7.5 q=22.0 size=       1KiB time=00:00:04.26 bitrate=   1.3kbits/s speed=0.249x elapsed=0:00:17.15    \nframe=  137 fps=7.7 q=36.0 size=       1KiB time=00:00:04.53 bitrate=   1.3kbits/s speed=0.256x elapsed=0:00:17.69    \n[out#0/matroska @ 0000010a0d591200] video:1432KiB audio:0KiB subtitle:0KiB other streams:0KiB global headers:0KiB muxing overhead: 0.099546%\nframe=  150 fps=8.3 q=39.0 Lsize=    1434KiB time=00:00:04.96 bitrate=2364.7kbits/s speed=0.273x elapsed=0:00:18.16    \n",
  "seconds": 18.588438272476196,
  "probe_out": {}
}